{"asset":{"version":"2.0","generator":"babylon.js glTF exporter for Autodesk Maya 2020.1 v20220415.1"},"scene":0,"scenes":[{"nodes":[0,23,24,25,26]}],"nodes":[{"children":[1,7],"name":"group"},{"children":[2,3,4,5,6],"name":"Butterfly_mesh"},{"skin":0,"mesh":0,"translation":[-1.42897406E-05,0.0,-0.009298076],"name":"Body"},{"skin":1,"mesh":1,"translation":[0.014933154,0.00191291922,-0.0144389709],"name":"Wing_L_Back"},{"skin":2,"mesh":2,"translation":[0.014933154,0.00191291922,-0.0144389709],"name":"Wing_R_Back"},{"skin":3,"mesh":3,"translation":[0.0253641047,0.0,-0.008454702],"name":"Wing_R_Front"},{"skin":4,"mesh":4,"translation":[0.0253641047,0.0,-0.008454702],"name":"Wing_L_Front"},{"children":[8],"name":"pasted__butterfly"},{"children":[9,11,14,17,20],"translation":[-0.00027693,-1.3145E-15,0.00216686213],"rotation":[0.0,-0.7071067,0.0,0.7071068],"scale":[0.99999994,1.0,0.99999994],"name":"pasted__root"},{"children":[10],"translation":[-0.008190063,-0.000363869447,-2.82155236E-18],"name":"pasted__tail1"},{"translation":[-0.0102949915,0.0,-3.54672E-18],"name":"pasted__tail2"},{"children":[12,13],"translation":[8.923053E-19,0.00179973617,-0.00246042851],"rotation":[-0.614438832,0.373724341,-0.557794154,0.414319515],"scale":[0.99999994,0.99999994,1.0],"name":"pasted__wing_front_L"},{"translation":[-0.0008998597,4.08294154E-09,4.082868E-09],"name":"pasted__wing_front_fr1_L"},{"translation":[-0.0004969616,-1.42902525E-08,-0.00157476694],"rotation":[1.25439467E-13,-0.422617048,4.610544E-06,0.906308353],"scale":[0.99999994,1.0,0.99999994],"name":"pasted__wing_front_bk1_L"},{"children":[15,16],"translation":[-9.732872E-19,0.00179973617,0.00246023922],"rotation":[-0.375801921,-0.613168657,0.412429273,0.55919534],"name":"pasted__wing_front_R"},{"translation":[0.0008998681,0.0,7.096347E-19],"name":"pasted__wing_front_fr1_R"},{"translation":[0.0004967272,0.0,0.00157476915],"rotation":[0.0,-0.42261827,0.0,0.906307757],"name":"pasted__wing_front_bk1_R"},{"children":[18,19],"translation":[-0.002309391,0.001439789,-0.00211649],"rotation":[-0.586642265,0.394782335,-0.586233139,0.395383954],"name":"pasted__wing_back_L"},{"translation":[-7.14515E-09,-1.4290273E-08,-0.00157476915],"rotation":[0.00616737129,-0.7070783,-0.0061673983,0.7070815],"scale":[1.0,0.99999994,1.0],"name":"pasted__wing_back_bk1_L"},{"translation":[-0.0008998597,4.08294154E-09,4.082868E-09],"rotation":[5.9284744E-14,-0.284013361,2.62109916E-06,0.958820343],"name":"pasted__wing_back_fr1_L"},{"children":[21,22],"translation":[-0.002309391,0.00143978989,0.00211649],"rotation":[-0.394780546,-0.5866397,0.3953857,0.5862358],"name":"pasted__wing_back_R"},{"translation":[7.14514137E-09,1.42903316E-08,0.0015747709],"rotation":[0.00616737129,-0.7070783,-0.0061673983,0.7070815],"scale":[1.0,0.99999994,1.0],"name":"pasted__wing_back_bk1_R"},{"translation":[0.000899859937,-1.00000372E-08,-4.08280565E-09],"rotation":[7.143871E-09,-0.284013361,2.62322328E-06,0.958820343],"name":"pasted__wing_back_fr1_R"},{"translation":[0.0,0.0371227674,0.0906531],"rotation":[-0.258884847,0.0,0.0,0.96590817],"name":"directionalLight1"},{"translation":[0.0,0.0,0.0584941953],"rotation":[-0.442163467,0.0,0.0,0.8969345],"name":"directionalLight2"},{"translation":[4.07624531,5.903862,-1.005454],"rotation":[0.169075713,0.755880356,-0.272171319,0.570947468],"scale":[100.000008,100.0,100.0],"name":"Butterfly_color:Light"},{"camera":0,"translation":[7.35889149,4.958309,6.925791],"rotation":[-0.209972993,0.385779858,0.0906285,0.893796265],"scale":[100.0,100.000008,99.99999],"name":"Butterfly_color:Camera"}],"cameras":[{"perspective":{"yfov":0.471090883,"zfar":10000.0,"znear":10.0},"type":"perspective","name":"Butterfly_color:Camera"}],"meshes":[{"primitives":[{"attributes":{"POSITION":1,"TANGENT":2,"NORMAL":3,"TEXCOORD_0":4,"JOINTS_0":5,"WEIGHTS_0":6},"indices":0,"material":0}],"name":"Body"},{"primitives":[{"attributes":{"POSITION":8,"TANGENT":9,"NORMAL":10,"TEXCOORD_0":11,"JOINTS_0":12,"WEIGHTS_0":13},"indices":7,"material":1}],"name":"Wing_L_Back"},{"primitives":[{"attributes":{"POSITION":15,"TANGENT":16,"NORMAL":17,"TEXCOORD_0":18,"JOINTS_0":19,"WEIGHTS_0":20},"indices":14,"material":1}],"name":"Wing_R_Back"},{"primitives":[{"attributes":{"POSITION":22,"TANGENT":23,"NORMAL":24,"TEXCOORD_0":25,"JOINTS_0":26,"WEIGHTS_0":27},"indices":21,"material":1}],"name":"Wing_R_Front"},{"primitives":[{"attributes":{"POSITION":29,"TANGENT":30,"NORMAL":31,"TEXCOORD_0":32,"JOINTS_0":33,"WEIGHTS_0":34},"indices":28,"material":1}],"name":"Wing_L_Front"}],"accessors":[{"bufferView":0,"componentType":5123,"count":312,"type":"SCALAR","name":"accessorIndices"},{"bufferView":1,"componentType":5126,"count":102,"max":[0.0025,0.00340217166,0.0158125591],"min":[-0.0025,-0.00298560946,-0.01638494],"type":"VEC3","name":"accessorPositions"},{"bufferView":2,"componentType":5126,"count":102,"type":"VEC4","name":"accessorTangents"},{"bufferView":1,"byteOffset":1224,"componentType":5126,"count":102,"type":"VEC3","name":"accessorNormals"},{"bufferView":3,"componentType":5126,"count":102,"type":"VEC2","name":"accessorUVs"},{"bufferView":4,"componentType":5123,"count":102,"type":"VEC4","name":"accessorJoints"},{"bufferView":2,"byteOffset":1632,"componentType":5126,"count":102,"type":"VEC4","name":"accessorWeights"},{"bufferView":0,"byteOffset":624,"componentType":5123,"count":147,"type":"SCALAR","name":"accessorIndices"},{"bufferView":1,"byteOffset":2448,"componentType":5126,"count":35,"max":[-0.003451193,0.02108637,0.0151856635],"min":[-0.0131609458,-0.00246324763,-0.0191858541],"type":"VEC3","name":"accessorPositions"},{"bufferView":2,"byteOffset":3264,"componentType":5126,"count":35,"type":"VEC4","name":"accessorTangents"},{"bufferView":1,"byteOffset":2868,"componentType":5126,"count":35,"type":"VEC3","name":"accessorNormals"},{"bufferView":3,"byteOffset":816,"componentType":5126,"count":35,"type":"VEC2","name":"accessorUVs"},{"bufferView":4,"byteOffset":816,"componentType":5123,"count":35,"type":"VEC4","name":"accessorJoints"},{"bufferView":2,"byteOffset":3824,"componentType":5126,"count":35,"type":"VEC4","name":"accessorWeights"},{"bufferView":0,"byteOffset":920,"componentType":5123,"count":147,"type":"SCALAR","name":"accessorIndices"},{"bufferView":1,"byteOffset":3288,"componentType":5126,"count":35,"max":[-0.0171231888,0.0214229152,0.0151862213],"min":[-0.0245928783,-0.0029131982,-0.0191857163],"type":"VEC3","name":"accessorPositions"},{"bufferView":2,"byteOffset":4384,"componentType":5126,"count":35,"type":"VEC4","name":"accessorTangents"},{"bufferView":1,"byteOffset":3708,"componentType":5126,"count":35,"type":"VEC3","name":"accessorNormals"},{"bufferView":3,"byteOffset":1096,"componentType":5126,"count":35,"type":"VEC2","name":"accessorUVs"},{"bufferView":4,"byteOffset":1096,"componentType":5123,"count":35,"type":"VEC4","name":"accessorJoints"},{"bufferView":2,"byteOffset":4944,"componentType":5126,"count":35,"type":"VEC4","name":"accessorWeights"},{"bufferView":0,"byteOffset":1216,"componentType":5123,"count":150,"type":"SCALAR","name":"accessorIndices"},{"bufferView":1,"byteOffset":4128,"componentType":5126,"count":36,"max":[-0.02765006,0.0436463878,0.0116903745],"min":[-0.04509925,0.000970956753,-0.0161728188],"type":"VEC3","name":"accessorPositions"},{"bufferView":2,"byteOffset":5504,"componentType":5126,"count":36,"type":"VEC4","name":"accessorTangents"},{"bufferView":1,"byteOffset":4560,"componentType":5126,"count":36,"type":"VEC3","name":"accessorNormals"},{"bufferView":3,"byteOffset":1376,"componentType":5126,"count":36,"type":"VEC2","name":"accessorUVs"},{"bufferView":4,"byteOffset":1376,"componentType":5123,"count":36,"type":"VEC4","name":"accessorJoints"},{"bufferView":2,"byteOffset":6080,"componentType":5126,"count":36,"type":"VEC4","name":"accessorWeights"},{"bufferView":0,"byteOffset":1516,"componentType":5123,"count":150,"type":"SCALAR","name":"accessorIndices"},{"bufferView":1,"byteOffset":4992,"componentType":5126,"count":36,"max":[-0.00599997863,0.0440282,0.0116147492],"min":[-0.0234489888,0.0014813859,-0.0163478125],"type":"VEC3","name":"accessorPositions"},{"bufferView":2,"byteOffset":6656,"componentType":5126,"count":36,"type":"VEC4","name":"accessorTangents"},{"bufferView":1,"byteOffset":5424,"componentType":5126,"count":36,"type":"VEC3","name":"accessorNormals"},{"bufferView":3,"byteOffset":1664,"componentType":5126,"count":36,"type":"VEC2","name":"accessorUVs"},{"bufferView":4,"byteOffset":1664,"componentType":5123,"count":36,"type":"VEC4","name":"accessorJoints"},{"bufferView":2,"byteOffset":7232,"componentType":5126,"count":36,"type":"VEC4","name":"accessorWeights"},{"bufferView":5,"componentType":5126,"count":11,"type":"MAT4","name":"accessorInverseBindMatrices"},{"bufferView":5,"byteOffset":704,"componentType":5126,"count":11,"type":"MAT4","name":"accessorInverseBindMatrices"},{"bufferView":5,"byteOffset":1408,"componentType":5126,"count":13,"type":"MAT4","name":"accessorInverseBindMatrices"},{"bufferView":5,"byteOffset":2240,"componentType":5126,"count":8,"type":"MAT4","name":"accessorInverseBindMatrices"},{"bufferView":5,"byteOffset":2752,"componentType":5126,"count":8,"type":"MAT4","name":"accessorInverseBindMatrices"},{"bufferView":6,"componentType":5126,"count":34,"max":[1.375],"min":[0.0],"type":"SCALAR","name":"accessorAnimationInput"},{"bufferView":7,"componentType":5126,"count":34,"type":"VEC3","name":"accessorAnimationPositions"},{"bufferView":8,"componentType":5126,"count":34,"type":"VEC4","name":"accessorAnimationRotations"},{"bufferView":7,"byteOffset":408,"componentType":5126,"count":34,"type":"VEC3","name":"accessorAnimationScales"},{"bufferView":6,"byteOffset":136,"componentType":5126,"count":34,"max":[1.375],"min":[0.0],"type":"SCALAR","name":"accessorAnimationInput"},{"bufferView":7,"byteOffset":816,"componentType":5126,"count":34,"type":"VEC3","name":"accessorAnimationPositions"},{"bufferView":8,"byteOffset":544,"componentType":5126,"count":34,"type":"VEC4","name":"accessorAnimationRotations"},{"bufferView":7,"byteOffset":1224,"componentType":5126,"count":34,"type":"VEC3","name":"accessorAnimationScales"},{"bufferView":6,"byteOffset":272,"componentType":5126,"count":34,"max":[1.375],"min":[0.0],"type":"SCALAR","name":"accessorAnimationInput"},{"bufferView":7,"byteOffset":1632,"componentType":5126,"count":34,"type":"VEC3","name":"accessorAnimationPositions"},{"bufferView":8,"byteOffset":1088,"componentType":5126,"count":34,"type":"VEC4","name":"accessorAnimationRotations"},{"bufferView":7,"byteOffset":2040,"componentType":5126,"count":34,"type":"VEC3","name":"accessorAnimationScales"},{"bufferView":6,"byteOffset":408,"componentType":5126,"count":34,"max":[1.375],"min":[0.0],"type":"SCALAR","name":"accessorAnimationInput"},{"bufferView":7,"byteOffset":2448,"componentType":5126,"count":34,"type":"VEC3","name":"accessorAnimationPositions"},{"bufferView":8,"byteOffset":1632,"componentType":5126,"count":34,"type":"VEC4","name":"accessorAnimationRotations"},{"bufferView":7,"byteOffset":2856,"componentType":5126,"count":34,"type":"VEC3","name":"accessorAnimationScales"}],"bufferViews":[{"buffer":0,"byteLength":1816,"name":"bufferViewScalar"},{"buffer":0,"byteOffset":1816,"byteLength":5856,"byteStride":12,"name":"bufferViewFloatVec3"},{"buffer":0,"byteOffset":7672,"byteLength":7808,"byteStride":16,"name":"bufferViewFloatVec4"},{"buffer":0,"byteOffset":15480,"byteLength":1952,"byteStride":8,"name":"bufferViewFloatVec2"},{"buffer":0,"byteOffset":17432,"byteLength":1952,"byteStride":8,"name":"bufferViewUnsignedShortVec4"},{"buffer":0,"byteOffset":19384,"byteLength":3264,"name":"bufferViewFloatMat4"},{"buffer":0,"byteOffset":22648,"byteLength":544,"name":"bufferViewAnimationFloatScalar"},{"buffer":0,"byteOffset":23192,"byteLength":3264,"name":"bufferViewAnimationFloatVec3"},{"buffer":0,"byteOffset":26456,"byteLength":2176,"name":"bufferViewAnimationFloatVec4"}],"buffers":[{"uri":"butterflyMayaTest02.bin","byteLength":28632}],"materials":[{"pbrMetallicRoughness":{"baseColorFactor":[0.08650277,0.09462556,0.040419165,1.0],"metallicFactor":0.0,"roughnessFactor":0.249303535},"name":"Butterfly_color:MaterialFBXASC046002"},{"pbrMetallicRoughness":{"baseColorFactor":[0.0,0.644951761,0.8000001,1.0],"metallicFactor":0.0,"roughnessFactor":0.249303535},"name":"Butterfly_color:MaterialFBXASC046001"}],"animations":[{"channels":[{"sampler":0,"target":{"node":11,"path":"translation"}},{"sampler":1,"target":{"node":11,"path":"rotation"}},{"sampler":2,"target":{"node":11,"path":"scale"}},{"sampler":3,"target":{"node":14,"path":"translation"}},{"sampler":4,"target":{"node":14,"path":"rotation"}},{"sampler":5,"target":{"node":14,"path":"scale"}},{"sampler":6,"target":{"node":17,"path":"translation"}},{"sampler":7,"target":{"node":17,"path":"rotation"}},{"sampler":8,"target":{"node":17,"path":"scale"}},{"sampler":9,"target":{"node":20,"path":"translation"}},{"sampler":10,"target":{"node":20,"path":"rotation"}},{"sampler":11,"target":{"node":20,"path":"scale"}}],"samplers":[{"input":40,"output":41},{"input":40,"output":42},{"input":40,"output":43},{"input":44,"output":45},{"input":44,"output":46},{"input":44,"output":47},{"input":48,"output":49},{"input":48,"output":50},{"input":48,"output":51},{"input":52,"output":53},{"input":52,"output":54},{"input":52,"output":55}],"name":"fly"}],"skins":[{"inverseBindMatrices":35,"skeleton":0,"joints":[0,7,8,9,10,11,14,17,18,20,21],"name":"skeleton #0"},{"inverseBindMatrices":36,"skeleton":0,"joints":[0,7,8,9,10,11,12,13,17,19,18],"name":"skeleton #1"},{"inverseBindMatrices":37,"skeleton":0,"joints":[0,7,8,9,10,14,15,16,17,18,20,22,21],"name":"skeleton #2"},{"inverseBindMatrices":38,"skeleton":0,"joints":[0,7,8,14,15,16,20,22],"name":"skeleton #3"},{"inverseBindMatrices":39,"skeleton":0,"joints":[0,7,8,11,12,13,17,19],"name":"skeleton #4"}]}